<svg width="24" height="24" viewBox="0 0 24 24" fill="none" xmlns="http://www.w3.org/2000/svg">
<circle cx="12" cy="12" r="12" fill="#F28634"/>
<path d="M7.84892 13.272H3.61392C3.62125 13.9907 3.80458 14.581 4.16392 15.043C4.53058 15.505 5.05858 15.736 5.74792 15.736C6.04125 15.736 6.34558 15.6883 6.66092 15.593C6.98358 15.4903 7.26225 15.3583 7.49692 15.197L7.59592 15.483C7.38325 15.659 7.08992 15.8093 6.71592 15.934C6.34925 16.0513 5.94592 16.11 5.50592 16.11C4.92658 16.11 4.41692 15.9927 3.97692 15.758C3.54425 15.516 3.20692 15.1823 2.96492 14.757C2.73025 14.3243 2.61292 13.8293 2.61292 13.272C2.61292 12.37 2.85858 11.6697 3.34992 11.171C3.84858 10.6723 4.53058 10.423 5.39592 10.423C5.94592 10.423 6.40425 10.5403 6.77092 10.775C7.13758 11.0097 7.40892 11.325 7.58492 11.721C7.76092 12.1097 7.84892 12.5423 7.84892 13.019V13.272ZM6.96892 12.887C6.96892 12.557 6.91758 12.2343 6.81492 11.919C6.71225 11.6037 6.54358 11.3433 6.30892 11.138C6.08158 10.9253 5.78458 10.819 5.41792 10.819C4.86792 10.819 4.44258 11.0133 4.14192 11.402C3.84858 11.7907 3.67625 12.2857 3.62492 12.887H6.96892ZM8.53289 15.879C8.69423 15.8277 8.98756 15.758 9.41289 15.67V8.685C9.10489 8.62633 8.84823 8.56033 8.64289 8.487V8.41L10.4029 8.223V15.67C10.7182 15.7213 11.0116 15.791 11.2829 15.879V16H8.53289V15.879ZM12.0801 15.879C12.3515 15.7983 12.6448 15.7323 12.9601 15.681V8.641C12.6081 8.58967 12.3148 8.52 12.0801 8.432V8.3H14.1371L16.6011 14.284L19.2081 8.3H21.2431V8.432C20.9718 8.52 20.6785 8.59333 20.3631 8.652V15.681C20.6785 15.7323 20.9718 15.7983 21.2431 15.879V16H18.4601V15.879C18.7095 15.7983 19.0028 15.7287 19.3401 15.67V9.07L16.6781 15.153H16.0841L13.4661 9.004V15.67C13.8035 15.7287 14.0968 15.7983 14.3461 15.879V16H12.0801V15.879Z" fill="#FDF5CB"/>
</svg>
