<svg width="170" height="18" viewBox="0 0 170 18" fill="none" xmlns="http://www.w3.org/2000/svg">
<path d="M11.4783 11.048H2.23825C2.25425 12.616 2.65425 13.904 3.43825 14.912C4.23825 15.92 5.39025 16.424 6.89425 16.424C7.53425 16.424 8.19825 16.32 8.88625 16.112C9.59025 15.888 10.1983 15.6 10.7103 15.248L10.9263 15.872C10.4623 16.256 9.82225 16.584 9.00625 16.856C8.20625 17.112 7.32625 17.24 6.36625 17.24C5.10225 17.24 3.99025 16.984 3.03025 16.472C2.08625 15.944 1.35025 15.216 0.82225 14.288C0.31025 13.344 0.05425 12.264 0.05425 11.048C0.05425 9.08 0.59025 7.552 1.66225 6.464C2.75025 5.376 4.23825 4.832 6.12625 4.832C7.32625 4.832 8.32625 5.088 9.12625 5.6C9.92625 6.112 10.5183 6.8 10.9023 7.664C11.2863 8.512 11.4783 9.456 11.4783 10.496V11.048ZM9.55825 10.208C9.55825 9.488 9.44625 8.784 9.22225 8.096C8.99825 7.408 8.63025 6.84 8.11825 6.392C7.62225 5.928 6.97425 5.696 6.17425 5.696C4.97425 5.696 4.04625 6.12 3.39025 6.968C2.75025 7.816 2.37425 8.896 2.26225 10.208H9.55825ZM12.9706 16.736C13.3226 16.624 13.9626 16.472 14.8906 16.28V1.04C14.2186 0.911999 13.6586 0.767999 13.2106 0.607999V0.439999L17.0506 0.0319996V16.28C17.7386 16.392 18.3786 16.544 18.9706 16.736V17H12.9706V16.736ZM46.3598 16.28C46.9998 16.376 47.6398 16.528 48.2798 16.736V17H42.3518V16.736C43.0878 16.496 43.6958 16.344 44.1758 16.28V8.408C44.1758 7.448 43.9438 6.76 43.4798 6.344C43.0318 5.912 42.4238 5.696 41.6558 5.696C41.0798 5.696 40.5198 5.864 39.9758 6.2C39.4318 6.52 38.9358 6.952 38.4878 7.496C38.5358 7.736 38.5598 7.976 38.5598 8.216V16.28C39.1838 16.376 39.7838 16.528 40.3598 16.736V17H34.6718V16.736C35.4238 16.496 36.0238 16.344 36.4718 16.28V8.408C36.4718 6.6 35.6478 5.696 33.9998 5.696C33.4238 5.696 32.8558 5.864 32.2958 6.2C31.7518 6.52 31.2638 6.96 30.8318 7.52V16.28C31.4718 16.376 32.1118 16.528 32.7518 16.736V17H26.7518V16.736C27.3918 16.528 28.0318 16.376 28.6718 16.28V5.864C27.9998 5.736 27.4398 5.592 26.9918 5.432V5.264L30.8318 4.856V6.584C31.2958 6.104 31.8478 5.696 32.4878 5.36C33.1438 5.008 33.8638 4.832 34.6478 4.832C35.5438 4.832 36.3038 5.008 36.9278 5.36C37.5678 5.696 38.0238 6.184 38.2958 6.824C38.7598 6.264 39.3438 5.792 40.0478 5.408C40.7518 5.024 41.5358 4.832 42.3998 4.832C43.5838 4.832 44.5358 5.136 45.2558 5.744C45.9918 6.352 46.3598 7.176 46.3598 8.216V16.28ZM55.7256 17.24C53.7256 17.24 52.1656 16.696 51.0456 15.608C49.9416 14.52 49.3896 13 49.3896 11.048C49.3896 9.096 49.9416 7.576 51.0456 6.488C52.1656 5.384 53.7256 4.832 55.7256 4.832C57.7096 4.832 59.2536 5.384 60.3576 6.488C61.4776 7.576 62.0376 9.096 62.0376 11.048C62.0376 13 61.4776 14.52 60.3576 15.608C59.2536 16.696 57.7096 17.24 55.7256 17.24ZM55.7256 16.4C56.9896 16.4 57.9976 15.928 58.7496 14.984C59.5016 14.024 59.8776 12.712 59.8776 11.048C59.8776 9.384 59.5016 8.08 58.7496 7.136C57.9976 6.176 56.9896 5.696 55.7256 5.696C54.4296 5.696 53.4056 6.176 52.6536 7.136C51.9176 8.08 51.5496 9.384 51.5496 11.048C51.5496 12.712 51.9176 14.024 52.6536 14.984C53.4056 15.928 54.4296 16.4 55.7256 16.4ZM68.7355 17.24C67.0555 17.24 65.7435 16.744 64.7995 15.752C63.8715 14.744 63.4075 13.192 63.4075 11.096C63.4075 9.144 63.9115 7.616 64.9195 6.512C65.9275 5.392 67.2955 4.832 69.0235 4.832C69.7595 4.832 70.4475 4.944 71.0875 5.168C71.7435 5.392 72.3595 5.824 72.9355 6.464V1.04C72.2635 0.911999 71.7115 0.767999 71.2795 0.607999V0.439999L75.0955 0.0319996V16.088C75.7355 16.216 76.2875 16.344 76.7515 16.472V16.64L73.4155 17.12C73.3355 16.608 73.2635 15.904 73.1995 15.008C72.7835 15.744 72.1835 16.304 71.3995 16.688C70.6155 17.056 69.7275 17.24 68.7355 17.24ZM69.3355 16.4C70.4075 16.4 71.2715 16.072 71.9275 15.416C72.5995 14.744 72.9355 13.904 72.9355 12.896V7.544C71.8955 6.312 70.7595 5.696 69.5275 5.696C68.1835 5.696 67.1835 6.216 66.5275 7.256C65.8875 8.28 65.5675 9.568 65.5675 11.12C65.5675 12.784 65.8715 14.08 66.4795 15.008C67.0875 15.936 68.0395 16.4 69.3355 16.4ZM88.9392 11.048H79.6992C79.7152 12.616 80.1152 13.904 80.8992 14.912C81.6992 15.92 82.8512 16.424 84.3552 16.424C84.9952 16.424 85.6592 16.32 86.3472 16.112C87.0512 15.888 87.6592 15.6 88.1712 15.248L88.3872 15.872C87.9232 16.256 87.2832 16.584 86.4672 16.856C85.6672 17.112 84.7872 17.24 83.8272 17.24C82.5632 17.24 81.4512 16.984 80.4912 16.472C79.5472 15.944 78.8112 15.216 78.2832 14.288C77.7712 13.344 77.5152 12.264 77.5152 11.048C77.5152 9.08 78.0512 7.552 79.1232 6.464C80.2112 5.376 81.6992 4.832 83.5872 4.832C84.7872 4.832 85.7872 5.088 86.5872 5.6C87.3872 6.112 87.9792 6.8 88.3632 7.664C88.7472 8.512 88.9392 9.456 88.9392 10.496V11.048ZM87.0192 10.208C87.0192 9.488 86.9072 8.784 86.6832 8.096C86.4592 7.408 86.0912 6.84 85.5792 6.392C85.0832 5.928 84.4352 5.696 83.6352 5.696C82.4352 5.696 81.5072 6.12 80.8512 6.968C80.2112 7.816 79.8352 8.896 79.7232 10.208H87.0192ZM90.1675 16.736C90.7115 16.528 91.3515 16.376 92.0875 16.28V5.864C91.3835 5.736 90.8315 5.592 90.4315 5.432V5.264L94.0075 4.856L94.1995 6.92H94.2955C94.5515 6.344 94.9515 5.856 95.4955 5.456C96.0395 5.04 96.6315 4.832 97.2715 4.832C98.0555 4.832 98.7195 5.008 99.2635 5.36L98.8555 6.488C98.4555 6.184 98.0075 6.032 97.5115 6.032C96.8555 6.032 96.2475 6.256 95.6875 6.704C95.1275 7.136 94.6475 7.688 94.2475 8.36V16.28C94.9515 16.392 95.5915 16.544 96.1675 16.736V17H90.1675V16.736ZM113.112 16.28C113.864 16.392 114.504 16.544 115.032 16.736V17H109.128V16.736C109.816 16.512 110.424 16.36 110.952 16.28V8.408C110.952 7.448 110.72 6.76 110.256 6.344C109.792 5.912 109.176 5.696 108.408 5.696C107.768 5.696 107.096 5.864 106.392 6.2C105.688 6.52 105.056 6.984 104.496 7.592V16.28C105.136 16.376 105.776 16.528 106.416 16.736V17H100.416V16.736C101.056 16.528 101.696 16.376 102.336 16.28V5.864C101.664 5.736 101.104 5.592 100.656 5.432V5.264L104.496 4.856V6.68C105.056 6.136 105.736 5.696 106.536 5.36C107.352 5.008 108.224 4.832 109.152 4.832C110.336 4.832 111.288 5.136 112.008 5.744C112.744 6.352 113.112 7.176 113.112 8.216V16.28ZM118.972 3.776C118.572 3.776 118.244 3.656 117.988 3.416C117.748 3.176 117.628 2.864 117.628 2.48C117.628 2.096 117.748 1.784 117.988 1.544C118.244 1.288 118.572 1.16 118.972 1.16C119.372 1.16 119.692 1.288 119.932 1.544C120.188 1.784 120.316 2.096 120.316 2.48C120.316 2.864 120.188 3.176 119.932 3.416C119.692 3.656 119.372 3.776 118.972 3.776ZM116.14 16.736C116.444 16.624 116.812 16.528 117.244 16.448C117.676 16.352 117.948 16.296 118.06 16.28V5.888C117.42 5.776 116.86 5.64 116.38 5.48V5.288L120.22 4.904V16.28C120.956 16.408 121.596 16.56 122.14 16.736V17H116.14V16.736ZM128.469 17.24C127.413 17.24 126.485 17.112 125.685 16.856C124.885 16.6 124.237 16.248 123.741 15.8L123.909 12.8H124.413C124.493 13.024 124.565 13.424 124.629 14C124.709 14.576 124.757 15.072 124.773 15.488C125.493 16.096 126.469 16.4 127.701 16.4C128.693 16.4 129.469 16.184 130.029 15.752C130.605 15.304 130.893 14.712 130.893 13.976C130.893 13.368 130.637 12.896 130.125 12.56C129.613 12.208 128.829 11.848 127.773 11.48C126.893 11.144 126.189 10.848 125.661 10.592C125.133 10.32 124.677 9.952 124.293 9.488C123.925 9.024 123.741 8.44 123.741 7.736C123.741 6.776 124.165 6.056 125.013 5.576C125.861 5.08 126.925 4.832 128.205 4.832C130.013 4.832 131.413 5.248 132.405 6.08L132.189 8.552H131.661C131.565 8.312 131.485 7.984 131.421 7.568C131.373 7.152 131.349 6.76 131.349 6.392C130.629 5.912 129.733 5.672 128.661 5.672C127.813 5.672 127.133 5.824 126.621 6.128C126.109 6.416 125.853 6.864 125.853 7.472C125.853 7.904 125.989 8.272 126.261 8.576C126.549 8.88 126.901 9.136 127.317 9.344C127.733 9.552 128.301 9.792 129.021 10.064C129.901 10.4 130.605 10.712 131.133 11C131.661 11.272 132.109 11.64 132.477 12.104C132.861 12.568 133.053 13.144 133.053 13.832C133.053 14.936 132.621 15.784 131.757 16.376C130.893 16.952 129.797 17.24 128.469 17.24ZM154.266 16.28C154.906 16.376 155.546 16.528 156.186 16.736V17H150.258V16.736C150.994 16.496 151.602 16.344 152.082 16.28V8.408C152.082 7.448 151.85 6.76 151.386 6.344C150.938 5.912 150.33 5.696 149.562 5.696C148.986 5.696 148.426 5.864 147.882 6.2C147.338 6.52 146.842 6.952 146.394 7.496C146.442 7.736 146.466 7.976 146.466 8.216V16.28C147.09 16.376 147.69 16.528 148.266 16.736V17H142.578V16.736C143.33 16.496 143.93 16.344 144.378 16.28V8.408C144.378 6.6 143.554 5.696 141.906 5.696C141.33 5.696 140.762 5.864 140.202 6.2C139.658 6.52 139.17 6.96 138.738 7.52V16.28C139.378 16.376 140.018 16.528 140.658 16.736V17H134.658V16.736C135.298 16.528 135.938 16.376 136.578 16.28V5.864C135.906 5.736 135.346 5.592 134.898 5.432V5.264L138.738 4.856V6.584C139.202 6.104 139.754 5.696 140.394 5.36C141.05 5.008 141.77 4.832 142.554 4.832C143.45 4.832 144.21 5.008 144.834 5.36C145.474 5.696 145.93 6.184 146.202 6.824C146.666 6.264 147.25 5.792 147.954 5.408C148.658 5.024 149.442 4.832 150.306 4.832C151.49 4.832 152.442 5.136 153.162 5.744C153.898 6.352 154.266 7.176 154.266 8.216V16.28ZM163.632 17.24C161.632 17.24 160.072 16.696 158.952 15.608C157.848 14.52 157.296 13 157.296 11.048C157.296 9.096 157.848 7.576 158.952 6.488C160.072 5.384 161.632 4.832 163.632 4.832C165.616 4.832 167.16 5.384 168.264 6.488C169.384 7.576 169.944 9.096 169.944 11.048C169.944 13 169.384 14.52 168.264 15.608C167.16 16.696 165.616 17.24 163.632 17.24ZM163.632 16.4C164.896 16.4 165.904 15.928 166.656 14.984C167.408 14.024 167.784 12.712 167.784 11.048C167.784 9.384 167.408 8.08 166.656 7.136C165.904 6.176 164.896 5.696 163.632 5.696C162.336 5.696 161.312 6.176 160.56 7.136C159.824 8.08 159.456 9.384 159.456 11.048C159.456 12.712 159.824 14.024 160.56 14.984C161.312 15.928 162.336 16.4 163.632 16.4Z" fill="#FDF5CB"/>
</svg>
